<svg width="18" height="20" viewBox="0 0 18 20" fill="none" xmlns="http://www.w3.org/2000/svg">
<g id="Icon">
<path id="Vector 78" d="M1.5 17.25V5.75C1.5 5.19772 1.94772 4.75 2.5 4.75H15.5C16.0523 4.75 16.5 5.19772 16.5 5.75V17.25C16.5 17.8023 16.0523 18.25 15.5 18.25H2.5C1.94772 18.25 1.5 17.8023 1.5 17.25Z" fill="currentColor" stroke="currentColor" stroke-width="2" stroke-linecap="round" stroke-linejoin="round"/>
<path id="Vector 81" d="M3.75 4.375V2.125C3.75 1.91789 3.91789 1.75 4.125 1.75C4.33211 1.75 4.5 1.91789 4.5 2.125V4.375C4.5 4.58211 4.33211 4.75 4.125 4.75C3.91789 4.75 3.75 4.58211 3.75 4.375Z" stroke="currentColor" stroke-width="2" stroke-linecap="round" stroke-linejoin="round"/>
<path id="Vector 82" d="M13.5 4.375V2.125C13.5 1.91789 13.6679 1.75 13.875 1.75C14.0821 1.75 14.25 1.91789 14.25 2.125V4.375C14.25 4.58211 14.0821 4.75 13.875 4.75C13.6679 4.75 13.5 4.58211 13.5 4.375Z" stroke="currentColor" stroke-width="2" stroke-linecap="round" stroke-linejoin="round"/>
</g>
</svg>
