<svg width="24" height="24" viewBox="0 0 24 24" fill="none" xmlns="http://www.w3.org/2000/svg">
<g id="Icon">
<circle id="Ellipse 50" cx="12" cy="12" r="9" fill="#19CFA2"/>
<path id="Ellipse 46 (Stroke)" fill-rule="evenodd" clip-rule="evenodd" d="M12 20C16.4183 20 20 16.4183 20 12C20 7.58172 16.4183 4 12 4C7.58172 4 4 7.58172 4 12C4 16.4183 7.58172 20 12 20ZM12 22C17.5228 22 22 17.5228 22 12C22 6.47715 17.5228 2 12 2C6.47715 2 2 6.47715 2 12C2 17.5228 6.47715 22 12 22Z" fill="#19CFA2"/>
<path id="Vector 36 (Stroke)" fill-rule="evenodd" clip-rule="evenodd" d="M16.7071 8.73279C17.0829 9.1375 17.0595 9.77023 16.6548 10.146L10.3876 15.9656C9.9934 16.3316 9.38034 16.3202 9 15.9399L6.70711 13.647C6.31658 13.2565 6.31658 12.6233 6.70711 12.2328C7.09763 11.8423 7.7308 11.8423 8.12132 12.2328L9.73281 13.8443L15.2939 8.68045C15.6986 8.30465 16.3313 8.32808 16.7071 8.73279Z" fill="white"/>
</g>
</svg>
