<svg width="16" height="16" viewBox="0 0 16 16" fill="none" xmlns="http://www.w3.org/2000/svg">
<path fill-rule="evenodd" clip-rule="evenodd" d="M0 8C0 3.5816 3.5816 0 8 0C12.4184 0 16 3.5816 16 8C16 12.4184 12.4184 16 8 16C3.5816 16 0 12.4184 0 8ZM6.1656 5.0344C6.01472 4.88867 5.81264 4.80804 5.60288 4.80986C5.39312 4.81168 5.19247 4.89582 5.04415 5.04415C4.89582 5.19247 4.81168 5.39312 4.80986 5.60288C4.80804 5.81264 4.88867 6.01472 5.0344 6.1656L6.8688 8L5.0344 9.8344C4.95799 9.9082 4.89705 9.99647 4.85512 10.0941C4.81319 10.1917 4.79112 10.2967 4.7902 10.4029C4.78928 10.5091 4.80952 10.6144 4.84974 10.7128C4.88997 10.8111 4.94937 10.9004 5.02448 10.9755C5.0996 11.0506 5.18892 11.11 5.28724 11.1503C5.38555 11.1905 5.4909 11.2107 5.59712 11.2098C5.70334 11.2089 5.80832 11.1868 5.90592 11.1449C6.00353 11.103 6.0918 11.042 6.1656 10.9656L8 9.1312L9.8344 10.9656C9.98528 11.1113 10.1874 11.192 10.3971 11.1901C10.6069 11.1883 10.8075 11.1042 10.9559 10.9559C11.1042 10.8075 11.1883 10.6069 11.1901 10.3971C11.192 10.1874 11.1113 9.98528 10.9656 9.8344L9.1312 8L10.9656 6.1656C11.1113 6.01472 11.192 5.81264 11.1901 5.60288C11.1883 5.39312 11.1042 5.19247 10.9559 5.04415C10.8075 4.89582 10.6069 4.81168 10.3971 4.80986C10.1874 4.80804 9.98528 4.88867 9.8344 5.0344L8 6.8688L6.1656 5.0344Z" fill="#888888"/>
</svg>
