<svg width="24" height="24" viewBox="0 0 24 24" fill="none" xmlns="http://www.w3.org/2000/svg">
<g id="home" clip-path="url(#clip0_66_2505)">
<path id="Vector" d="M9.44572 22.1449V16.1407H14.2491V22.1449C14.2491 22.8053 14.7895 23.3457 15.4499 23.3457H19.0524C19.7129 23.3457 20.2533 22.8053 20.2533 22.1449V13.739H22.2947C22.8471 13.739 23.1113 13.0545 22.691 12.6942L12.652 3.65192C12.1956 3.24363 11.4992 3.24363 11.0428 3.65192L1.00381 12.6942C0.595524 13.0545 0.8477 13.739 1.40009 13.739H3.44152V22.1449C3.44152 22.8053 3.98189 23.3457 4.64236 23.3457H8.24488C8.90534 23.3457 9.44572 22.8053 9.44572 22.1449Z" fill="currentColor"/>
</g>
<defs>
<clipPath id="clip0_66_2505">
<rect width="24" height="24" fill="white"/>
</clipPath>
</defs>
</svg>
